<?xml version="1.0" encoding="UTF-8" standalone="no"?>
<svg
   xmlns:dc="http://purl.org/dc/elements/1.1/"
   xmlns:cc="http://creativecommons.org/ns#"
   xmlns:rdf="http://www.w3.org/1999/02/22-rdf-syntax-ns#"
   xmlns:svg="http://www.w3.org/2000/svg"
   xmlns="http://www.w3.org/2000/svg"
   xmlns:sodipodi="http://sodipodi.sourceforge.net/DTD/sodipodi-0.dtd"
   xmlns:inkscape="http://www.inkscape.org/namespaces/inkscape"
   inkscape:version="1.0 (4035a4fb49, 2020-05-01)"
   sodipodi:docname="VK_Music_Full_Logo.svg"
   id="svg32"
   version="1.1"
   fill="none"
   viewBox="0 0 100 100"
   height="100"
   width="100">
  <metadata
     id="metadata38">
    <rdf:RDF>
      <cc:Work
         rdf:about="">
        <dc:format>image/svg+xml</dc:format>
        <dc:type
           rdf:resource="http://purl.org/dc/dcmitype/StillImage" />
        <dc:title></dc:title>
      </cc:Work>
    </rdf:RDF>
  </metadata>
  <defs
     id="defs36" />
  <sodipodi:namedview
     inkscape:current-layer="svg32"
     inkscape:window-maximized="0"
     inkscape:window-y="112"
     inkscape:window-x="886"
     inkscape:cy="50"
     inkscape:cx="94.910377"
     inkscape:zoom="2.5714286"
     showgrid="false"
     id="namedview34"
     inkscape:window-height="971"
     inkscape:window-width="1663"
     inkscape:pageshadow="2"
     inkscape:pageopacity="0"
     guidetolerance="10"
     gridtolerance="10"
     objecttolerance="10"
     borderopacity="1"
     bordercolor="#666666"
     pagecolor="#ffffff" />
  <g
     id="g879">
    <path
       fill-rule="evenodd"
       clip-rule="evenodd"
       d="M 7.48248,7.02943 C 0.663345,13.8486 0.459342,24.6995 0.453244,45.9994 19.5412,45.9993 31.4588,37.8045 41.9125,30.6162 50.0792,25.0007 57.3524,19.9994 66.4531,19.9994 c 13.5454,0 25.3725,9.5774 31.6438,14.6558 0.8843,0.7161 1.6582,1.3428 2.3111,1.8405 C 100.21,21.3094 99.1447,12.7505 93.4236,7.02943 86.3942,-1.2251e-6 75.0805,-2.21418e-6 52.453,-4.19233e-6 l -4,-3.4969e-7 C 25.8256,1.10922e-6 14.5119,1.20145e-7 7.48248,7.02943 Z M 45.5131,99.9994 c 0.9582,6e-4 1.938,6e-4 2.94,6e-4 h 3.9999 10e-5 c 1.0019,0 1.9816,0 2.9397,-6e-4 z"
       fill="#0077ff"
       id="path18" />
    <path
       fill-rule="evenodd"
       clip-rule="evenodd"
       d="M 0.45332,45.9994 C 19.5413,45.9993 31.4589,37.8045 41.9126,30.6162 50.0792,25.0007 57.3525,19.9994 66.4531,19.9994 c 13.5455,0 25.3726,9.5774 31.6438,14.6558 0.8844,0.7161 1.6583,1.3428 2.3111,1.8405 0.045,3.473 0.045,7.2927 0.045,11.5043 v 4 c 0,22.6274 0,33.9411 -7.0293,40.9706 -6.7183,6.7182 -17.3499,7.0156 -38.0315,7.0288 H 45.5139 C 24.8324,99.9862 14.2008,99.6888 7.48256,92.9706 0.453126,85.9411 0.453127,74.6274 0.453129,52 l 10e-7,-4 c 0,-0.6769 0,-1.3437 1.9e-4,-2.0006 z"
       fill="#f45fff"
       id="path20" />
    <path
       d="m 77.9536,50.9751 c 0,-2.4715 2.0285,-4.475 4.5,-4.475 2.4715,0 4.5,2.0035 4.5,4.475 v 18.05 c 0,2.4714 -2.0285,4.475 -4.5,4.475 -2.4715,0 -4.5,-2.0036 -4.5,-4.475 z"
       fill="#ffffff"
       id="path22" />
    <path
       d="m 61.9541,39.4752 c 0,-2.4715 2.0285,-4.475 4.5,-4.475 2.4715,0 4.5,2.0035 4.5,4.475 v 41.05 c 0,2.4715 -2.0285,4.475 -4.5,4.475 -2.4715,0 -4.5,-2.0035 -4.5,-4.475 z"
       fill="#ffffff"
       id="path24" />
    <path
       d="m 45.9541,50.9751 c 0,-2.4715 2.0285,-4.475 4.5,-4.475 2.4715,0 4.5,2.0035 4.5,4.475 v 18.05 c 0,2.4714 -2.0285,4.475 -4.5,4.475 -2.4715,0 -4.5,-2.0036 -4.5,-4.475 z"
       fill="#ffffff"
       id="path26" />
    <path
       d="m 29.9521,57.4749 c 0,-2.4715 2.0286,-4.475 4.5,-4.475 2.4715,0 4.5,2.0035 4.5,4.475 v 5.05 c 0,2.4715 -2.0285,4.475 -4.5,4.475 -2.4714,0 -4.5,-2.0035 -4.5,-4.475 z"
       fill="#ffffff"
       id="path28" />
    <path
       d="m 13.9521,57.4749 c 0,-2.4715 2.0286,-4.475 4.5,-4.475 2.4715,0 4.5,2.0035 4.5,4.475 v 5.05 c 0,2.4715 -2.0285,4.475 -4.5,4.475 -2.4714,0 -4.5,-2.0035 -4.5,-4.475 z"
       fill="#ffffff"
       id="path30" />
  </g>
</svg>
